<svg width="120" height="25" viewBox="0 0 120 25" fill="none" xmlns="http://www.w3.org/2000/svg">
<g clip-path="url(#clip0)">
<path d="M23 16.7336H5C3.89543 16.7336 3 17.6291 3 18.7336V19.1336C3 20.2382 3.89543 21.1336 5 21.1336H23C24.1046 21.1336 25 20.2382 25 19.1336V18.7336C25 17.6291 24.1046 16.7336 23 16.7336Z" fill="#21B6B7"/>
<path d="M15.6667 10.8673H5C3.89543 10.8673 3 11.7627 3 12.8673V13.2673C3 14.3719 3.89543 15.2673 5 15.2673H15.6667C16.7713 15.2673 17.6667 14.3719 17.6667 13.2673V12.8673C17.6667 11.7627 16.7713 10.8673 15.6667 10.8673Z" fill="#21B6B7"/>
<path d="M8.33333 5H5C3.89543 5 3 5.89543 3 7V7.4C3 8.50457 3.89543 9.4 5 9.4H8.33333C9.4379 9.4 10.3333 8.50457 10.3333 7.4V7C10.3333 5.89543 9.4379 5 8.33333 5Z" fill="#21B6B7"/>
<path d="M43.312 20C42.8573 20.176 42.366 20.264 41.838 20.264C41.31 20.264 40.8993 20.1687 40.606 19.978C40.3127 19.7873 40.0707 19.5013 39.88 19.12C39.6013 18.5627 39.286 17.6167 38.934 16.282C38.582 14.9327 38.3033 13.4587 38.098 11.86C36.866 15.776 36.162 18.4453 35.986 19.868C35.3407 20.044 34.7613 20.132 34.248 20.132C33.412 20.132 32.796 19.8313 32.4 19.23C32.004 18.614 31.718 17.8147 31.542 16.832C31.542 16.8027 31.432 16.1867 31.212 14.984C30.992 13.7813 30.8307 12.9453 30.728 12.476C30.3907 10.76 30.0387 9.32267 29.672 8.164C29.32 7.00533 28.7993 6.21333 28.11 5.788C28.286 5.348 28.5573 5.00333 28.924 4.754C29.2907 4.50467 29.7013 4.38 30.156 4.38C31.168 4.38 31.894 5.14267 32.334 6.668C32.642 7.73867 33.0087 9.55733 33.434 12.124C33.8593 14.676 34.1747 16.502 34.38 17.602C36.0373 12.9673 36.866 9.902 36.866 8.406C36.866 8.098 36.8293 7.88533 36.756 7.768C37.064 7.416 37.4967 7.24 38.054 7.24C38.626 7.24 39.066 7.394 39.374 7.702C39.6967 8.01 39.9533 8.50867 40.144 9.198C40.3347 9.87267 40.5987 11.2 40.936 13.18C41.288 15.16 41.5593 16.634 41.75 17.602C42.3367 15.754 42.7987 14.2653 43.136 13.136C43.488 12.0067 43.8473 10.584 44.214 8.868C44.5953 7.152 44.786 5.766 44.786 4.71C44.786 4.51933 44.7787 4.38 44.764 4.292C44.9547 4.26267 45.2773 4.248 45.732 4.248C46.1867 4.248 46.5827 4.39467 46.92 4.688C47.272 4.96667 47.448 5.42133 47.448 6.052C47.448 6.68267 47.2133 7.73867 46.744 9.22C46.2893 10.7013 45.6953 12.5053 44.962 14.632C44.2433 16.744 43.6933 18.5333 43.312 20ZM51.9288 19.736C51.4741 19.912 50.9901 20 50.4768 20C49.9634 20 49.5454 19.8827 49.2228 19.648C48.9148 19.3987 48.7608 19.0613 48.7608 18.636C48.7608 18.196 48.8268 17.404 48.9588 16.26C49.0908 15.116 49.1568 14.0087 49.1568 12.938C49.1568 11.8527 48.9881 10.584 48.6508 9.132C49.1201 8.956 49.5821 8.868 50.0368 8.868C50.4914 8.868 50.8801 9.022 51.2028 9.33C51.5401 9.638 51.7088 10.0487 51.7088 10.562C51.7088 10.826 51.6648 11.222 51.5768 11.75C51.4888 12.2633 51.4374 12.652 51.4228 12.916C51.9948 11.6107 52.6694 10.5913 53.4468 9.858C54.2388 9.11 55.0234 8.736 55.8008 8.736C56.3434 8.736 56.7761 8.92667 57.0988 9.308C57.4214 9.68933 57.5828 10.1733 57.5828 10.76C57.5828 11.332 57.4361 11.8013 57.1428 12.168C56.8494 12.52 56.4828 12.696 56.0428 12.696C55.6174 12.696 55.2728 12.652 55.0088 12.564C55.0528 12.388 55.0748 12.2267 55.0748 12.08C55.0748 11.4787 54.8621 11.178 54.4368 11.178C53.7914 11.178 53.1828 11.8307 52.6108 13.136C52.0534 14.4267 51.6794 15.6367 51.4888 16.766C51.5621 17.866 51.7088 18.856 51.9288 19.736ZM68.8035 9.638C68.4075 11.3247 68.2095 13.0187 68.2095 14.72C68.2095 16.4067 68.4001 18.0787 68.7815 19.736C68.2535 19.912 67.7108 20 67.1535 20C66.5961 20 66.2075 19.8387 65.9875 19.516C65.7675 19.1787 65.6575 18.702 65.6575 18.086C65.6575 17.4553 65.7528 16.5973 65.9435 15.512C64.9021 17.7413 63.8975 19.1493 62.9295 19.736C62.4895 20 62.0348 20.132 61.5655 20.132C60.4508 20.132 59.5855 19.7213 58.9695 18.9C58.3535 18.064 58.0455 17.03 58.0455 15.798C58.0455 13.9207 58.5661 12.278 59.6075 10.87C60.6488 9.44733 61.9981 8.736 63.6555 8.736C65.3275 8.736 67.0435 9.03667 68.8035 9.638ZM65.9215 10.958C65.1441 10.7233 64.4841 10.606 63.9415 10.606C62.8415 10.606 62.0201 10.848 61.4775 11.332C60.9788 12.564 60.7295 13.818 60.7295 15.094C60.7295 15.7687 60.8321 16.4507 61.0375 17.14C61.2575 17.8293 61.5875 18.174 62.0275 18.174C62.5408 18.174 63.2008 17.4187 64.0075 15.908C64.8141 14.3973 65.4521 12.7473 65.9215 10.958ZM80.9898 11.112L80.7698 15.952C80.7698 17.2867 80.9751 18.592 81.3858 19.868C80.9751 20.044 80.5058 20.132 79.9778 20.132C78.7311 20.132 78.1078 19.4353 78.1078 18.042C78.1078 17.4113 78.1884 16.3553 78.3498 14.874C78.5111 13.378 78.5918 12.4393 78.5918 12.058C78.5918 11.3247 78.2618 10.958 77.6018 10.958C77.1178 10.958 76.5678 11.31 75.9518 12.014C75.3504 12.7033 74.8298 13.4807 74.3898 14.346C73.9644 15.1967 73.7151 15.9007 73.6418 16.458C73.7004 17.602 73.8471 18.6947 74.0818 19.736C73.6124 19.912 73.1211 20 72.6078 20C72.1091 20 71.6984 19.8827 71.3758 19.648C71.0678 19.3987 70.9138 19.0613 70.9138 18.636C70.9138 18.196 70.9798 17.4187 71.1118 16.304C71.2438 15.1747 71.3098 14.06 71.3098 12.96C71.3098 11.8453 71.1411 10.5693 70.8038 9.132C71.2731 8.956 71.7718 8.868 72.2998 8.868C72.8278 8.868 73.2531 9.022 73.5758 9.33C73.9131 9.638 74.0818 10.0193 74.0818 10.474C74.0818 10.9287 74.0231 11.6547 73.9058 12.652C74.4631 11.6107 75.1891 10.7013 76.0838 9.924C76.9784 9.132 77.8731 8.736 78.7678 8.736C80.2491 8.736 80.9898 9.528 80.9898 11.112ZM86.3564 13.07C86.8697 11.9847 87.6324 10.9947 88.6444 10.1C89.671 9.19067 90.705 8.736 91.7464 8.736C93.213 8.736 93.9464 9.51333 93.9464 11.068C93.9464 11.86 93.5797 12.7107 92.8464 13.62C92.1277 14.5147 91.321 15.226 90.4264 15.754C90.837 16.4727 91.343 17.0227 91.9444 17.404C92.5604 17.7707 93.367 18.064 94.3644 18.284C94.3644 18.856 94.225 19.3107 93.9464 19.648C93.6824 19.9707 93.301 20.132 92.8024 20.132C91.805 20.132 90.8297 19.6553 89.8764 18.702C88.923 17.734 88.2044 16.656 87.7204 15.468C88.659 14.9987 89.4657 14.4413 90.1404 13.796C90.8297 13.1507 91.1744 12.5053 91.1744 11.86C91.1744 11.2147 90.9764 10.892 90.5804 10.892C89.8177 10.892 88.967 11.5887 88.0284 12.982C87.1044 14.3753 86.569 15.534 86.4224 16.458C86.4517 16.8833 86.5984 17.976 86.8624 19.736C86.4077 19.912 85.909 20 85.3664 20C84.237 20 83.6724 19.45 83.6724 18.35C83.6724 17.822 83.753 16.788 83.9144 15.248C84.0757 13.6933 84.1564 12.4467 84.1564 11.508C84.1564 8.384 83.9804 5.80267 83.6284 3.764C84.0977 3.588 84.5817 3.5 85.0804 3.5C85.579 3.5 85.9897 3.66867 86.3124 4.006C86.6497 4.32867 86.8184 4.776 86.8184 5.348C86.8184 5.92 86.7377 7.10067 86.5764 8.89C86.4297 10.6793 86.3564 12.0727 86.3564 13.07ZM97.7041 15.006C97.7041 16.062 97.8727 16.898 98.2101 17.514C98.5474 18.1153 99.1121 18.416 99.9041 18.416C100.696 18.416 101.312 18.152 101.752 17.624C102.207 17.0813 102.434 16.4287 102.434 15.666C102.933 15.666 103.365 15.7907 103.732 16.04C104.099 16.2893 104.282 16.634 104.282 17.074C104.282 17.9833 103.798 18.746 102.83 19.362C101.862 19.9633 100.843 20.264 99.7721 20.264C98.1001 20.264 96.8901 19.8167 96.1421 18.922C95.3941 18.0127 95.0201 16.6707 95.0201 14.896C95.0201 13.1213 95.5187 11.6327 96.5161 10.43C97.5281 9.21267 98.8701 8.604 100.542 8.604C101.686 8.604 102.603 8.868 103.292 9.396C103.996 9.90933 104.348 10.716 104.348 11.816C104.348 12.9013 103.849 13.7227 102.852 14.28C101.869 14.8227 100.667 15.094 99.2441 15.094C98.7454 15.094 98.2321 15.0647 97.7041 15.006ZM97.7261 13.268C98.1661 13.356 98.6281 13.4 99.1121 13.4C100.168 13.4 101.055 13.202 101.774 12.806C101.862 12.454 101.906 12.1753 101.906 11.97C101.906 11.4567 101.723 11.068 101.356 10.804C100.989 10.54 100.483 10.408 99.8381 10.408C99.2074 10.408 98.6354 10.6133 98.1221 11.024C97.8581 11.7867 97.7261 12.5347 97.7261 13.268ZM109.657 19.736C109.203 19.912 108.719 20 108.205 20C107.692 20 107.274 19.8827 106.951 19.648C106.643 19.3987 106.489 19.0613 106.489 18.636C106.489 18.196 106.555 17.404 106.687 16.26C106.819 15.116 106.885 14.0087 106.885 12.938C106.885 11.8527 106.717 10.584 106.379 9.132C106.849 8.956 107.311 8.868 107.765 8.868C108.22 8.868 108.609 9.022 108.931 9.33C109.269 9.638 109.437 10.0487 109.437 10.562C109.437 10.826 109.393 11.222 109.305 11.75C109.217 12.2633 109.166 12.652 109.151 12.916C109.723 11.6107 110.398 10.5913 111.175 9.858C111.967 9.11 112.752 8.736 113.529 8.736C114.072 8.736 114.505 8.92667 114.827 9.308C115.15 9.68933 115.311 10.1733 115.311 10.76C115.311 11.332 115.165 11.8013 114.871 12.168C114.578 12.52 114.211 12.696 113.771 12.696C113.346 12.696 113.001 12.652 112.737 12.564C112.781 12.388 112.803 12.2267 112.803 12.08C112.803 11.4787 112.591 11.178 112.165 11.178C111.52 11.178 110.911 11.8307 110.339 13.136C109.782 14.4267 109.408 15.6367 109.217 16.766C109.291 17.866 109.437 18.856 109.657 19.736Z" fill="url(#paint0_linear)"/>
</g>
<defs>
<linearGradient id="paint0_linear" x1="30.5" y1="13" x2="116" y2="13" gradientUnits="userSpaceOnUse">
<stop stop-color="#B9C9D1"/>
<stop offset="0.8625" stop-color="#21B6B7"/>
</linearGradient>
<clipPath id="clip0">
<rect width="120" height="25" fill="white"/>
</clipPath>
</defs>
</svg>
